<?xml version="1.0" encoding="utf-8"?>
<!-- Generator: Adobe Illustrator 22.0.0, SVG Export Plug-In . SVG Version: 6.00 Build 0)  -->
<svg version="1.1" xmlns="http://www.w3.org/2000/svg" xmlns:xlink="http://www.w3.org/1999/xlink" x="0px" y="0px"
	 viewBox="0 0 500 500" style="enable-background:new 0 0 500 500;" xml:space="preserve">
<style type="text/css">
	.st0{fill:#BA68C8;}
	.st1{opacity:0.3;}
	.st2{fill:#FFFFFF;}
	.st3{opacity:0.65;}
	.st4{fill:#FAFAFA;}
	.st5{fill:#E6E6E6;}
	.st6{fill:#EBEBEB;}
	.st7{opacity:0.2;fill:#FFFFFF;}
	.st8{opacity:0.6;fill:#BA68C8;}
	.st9{opacity:0.5;fill:#FFFFFF;}
	.st10{opacity:0.3;fill:#FFFFFF;}
	.st11{opacity:0.4;fill:#FFFFFF;}
	.st12{fill:#37474F;}
	.st13{fill:#263238;}
	.st14{fill:#455A64;}
	.st15{opacity:0.2;}
	.st16{opacity:0.15;}
	.st17{opacity:0.15;fill:#FFFFFF;}
	.st18{fill:#E0E0E0;}
	.st19{opacity:0.1;}
	.st20{opacity:0.25;}
</style>
<g id="Plants">
	<g id="Plants_6_">
		<g id="XMLID_1180_">
			<g id="XMLID_1185_">
				<path id="XMLID_1186_" class="st0" d="M55,301.9l8.7-5.6c0,0,4.2-22.3,1.1-42c-4.4-27.7-23.3-37.3-30.1-34.6
					c-6.9,2.8-8.5,11,3.9,27C45.8,256.2,55.2,276.2,55,301.9z"/>
			</g>
			<g id="XMLID_1183_" class="st1">
				<path id="XMLID_1184_" class="st2" d="M55,301.9l8.7-5.6c0,0,4.2-22.3,1.1-42c-4.4-27.7-23.3-37.3-30.1-34.6
					c-6.9,2.8-8.5,11,3.9,27C45.8,256.2,55.2,276.2,55,301.9z"/>
			</g>
			<g id="XMLID_1181_">
				<path id="XMLID_1182_" class="st2" d="M58.1,290.9C58.1,290.9,58.1,290.9,58.1,290.9c-0.4-0.1-0.7-0.4-0.6-0.7
					c3.6-26-6.9-54.4-18.6-65.9c-0.2-0.2-0.2-0.6,0-0.9c0.2-0.2,0.6-0.2,0.9,0c11.9,11.7,22.6,40.6,19,66.9
					C58.7,290.7,58.4,290.9,58.1,290.9z"/>
			</g>
		</g>
		<g id="XMLID_1169_">
			<g id="XMLID_1178_">
				<path id="XMLID_1179_" class="st0" d="M33.2,316c-1.3,0.7-5-2.1-6-2.8c-1.8-1.2-3.2-2.8-4.1-4.7c-1.1-2.2-1.4-4.5-1-7
					c0.2-1.3,0.5-2.5,0.9-3.7c0.3-1.2,0.7-2.4,1-3.6c0.3-1.2,0.7-2.4,0.5-3.6c-0.3-2.5-2.5-4.2-4.5-5.7c-2.2-1.6-4.5-3.8-4.5-6.8
					c0-2.3,1.2-4.4,2.6-6.2c1.4-1.8,3.1-3.4,4.4-5.3c0.9-1.4,1.6-3,1.5-4.6c-0.1-1-0.5-2-1-2.9c-1-1.9-2.4-3.7-3.1-5.8
					c-0.7-2.1-0.6-4.6,1-6.1c1.3-1.2,3.3-1.4,5.1-1.3c1.7,0.1,3.3,0.9,4.7,1.7c4.7,2.6,7.4,8.2,12.4,10.2c1.9,0.8,4,0.9,6,1.5
					c2,0.5,4.1,1.6,5,3.4c1.8,3.7-1.6,8.2-0.3,12.1c1.1,3.4,4.5,4.8,6.4,7.8c0.8,1.4,1,2.9,0.9,4.5c-0.2,2.7-0.6,4.6-1.9,7.6
					c-1.1,2.5-4.2,7.2-4.2,7.2S33.4,315.9,33.2,316z"/>
			</g>
			<g id="XMLID_1176_" class="st3">
				<path id="XMLID_1177_" class="st2" d="M33.2,316c-1.3,0.7-5-2.1-6-2.8c-1.8-1.2-3.2-2.8-4.1-4.7c-1.1-2.2-1.4-4.5-1-7
					c0.2-1.3,0.5-2.5,0.9-3.7c0.3-1.2,0.7-2.4,1-3.6c0.3-1.2,0.7-2.4,0.5-3.6c-0.3-2.5-2.5-4.2-4.5-5.7c-2.2-1.6-4.5-3.8-4.5-6.8
					c0-2.3,1.2-4.4,2.6-6.2c1.4-1.8,3.1-3.4,4.4-5.3c0.9-1.4,1.6-3,1.5-4.6c-0.1-1-0.5-2-1-2.9c-1-1.9-2.4-3.7-3.1-5.8
					c-0.7-2.1-0.6-4.6,1-6.1c1.3-1.2,3.3-1.4,5.1-1.3c1.7,0.1,3.3,0.9,4.7,1.7c4.7,2.6,7.4,8.2,12.4,10.2c1.9,0.8,4,0.9,6,1.5
					c2,0.5,4.1,1.6,5,3.4c1.8,3.7-1.6,8.2-0.3,12.1c1.1,3.4,4.5,4.8,6.4,7.8c0.8,1.4,1,2.9,0.9,4.5c-0.2,2.7-0.6,4.6-1.9,7.6
					c-1.1,2.5-4.2,7.2-4.2,7.2S33.4,315.9,33.2,316z"/>
			</g>
			<g id="XMLID_1174_">
				<path id="XMLID_1175_" class="st2" d="M45.8,308.6C45.8,308.6,45.8,308.6,45.8,308.6c-0.3,0-0.6-0.3-0.6-0.6
					c1-23.2-10-48.9-17.9-56.4c-0.2-0.2-0.2-0.6,0-0.8c0.2-0.2,0.6-0.2,0.8,0c8.1,7.6,19.3,33.7,18.3,57.3
					C46.4,308.4,46.1,308.6,45.8,308.6z"/>
			</g>
			<g id="XMLID_1171_">
				<path id="XMLID_1173_" class="st2" d="M42,280.2c-0.1,0-0.1,0-0.2,0c-7.5-2.3-16.8-2.7-16.9-2.7c-0.3,0-0.6-0.3-0.6-0.6
					c0-0.3,0.3-0.6,0.6-0.6c0.1,0,9.6,0.4,17.2,2.8c0.3,0.1,0.5,0.4,0.4,0.7C42.5,280.1,42.3,280.2,42,280.2z"/>
			</g>
		</g>
	</g>
</g>
<g id="Floor">
	<ellipse id="Floor_5_" class="st4" cx="253.7" cy="351.7" rx="231" ry="133.4"/>
</g>
<g id="Shadows">
	<path id="Shadow_11_" class="st5" d="M130.9,294.8c48.9-28.2,128.2-28.2,177.2,0c41.5,23.9,47.8,60.5,18.9,88.3l107.7,61.4
		c6.6,3.8,6.6,9.9,0,13.7l-9.7,5.6c-6.6,3.8-17,3.5-23.4-0.7l-94-65.7c-49,28-127.9,27.9-176.7-0.3C82,368.9,82,323.1,130.9,294.8z"
		/>
</g>
<g id="Clouds">
	<path id="Cloud_2_" class="st6" d="M150.8,46.5l-8.5,4.9c0-0.4,0.1-0.8,0.1-1.1v-2.5c0-4.4-3.1-6.1-6.9-4c-1.5,0.9-2.9,2.3-4.1,3.9
		c-0.6-5.5-4.9-7.6-10.2-4.5c-5.7,3.3-10.3,11.2-10.3,17.8v3.7c0,1.7,0.3,3.1,0.9,4.3l-7.1,4.1c-2.1,1.2-3.8,4.2-3.8,6.6
		c0,2.4,1.7,3.4,3.8,2.2l46-26.6c2.1-1.2,3.8-4.2,3.8-6.6C154.6,46.3,152.9,45.3,150.8,46.5z"/>
	<path id="Cloud_1_" class="st6" d="M38.9,68.6l4.8-3.7V54.3c0-8.4,6.7-18.1,13.9-22.2l0,0c7.2-4.2,13.1-0.8,13.1,7.6v1.5
		c1.6-2.6,3.8-4.7,6.1-6.1l0,0c5.2-3,9.4-0.6,9.4,5.4v0.7l6.7-3.9c3.4-2,6.2-0.4,6.2,3.6s-2.8,8.8-6.2,10.8l-54,31.2
		c-3.4,2-6.2,0.4-6.2-3.6S35.5,70.5,38.9,68.6z"/>
</g>
<g id="Glass">
	<g id="Glass_1_">
		<g id="XMLID_283_">
			<g>
				<path id="XMLID_296_" class="st0" d="M109.8,313.2v30.4c0,16.5,10.9,33,32.7,45.6c43.7,25.2,114.5,25.2,158.1,0
					c21.8-12.6,32.7-29.1,32.7-45.6v-30.4l0,0c0-16.5-10.9-33-32.7-45.6c-43.7-25.2-114.5-25.2-158.1,0
					C120.7,280.2,109.8,296.7,109.8,313.2L109.8,313.2z M322.6,313.2c0,13.2-9.7,26.1-27.3,36.3c-19.5,11.3-45.7,17.5-73.7,17.5
					c-28,0-54.2-6.2-73.7-17.5c-17.6-10.2-27.3-23.1-27.3-36.3c0-13.2,9.7-26.1,27.3-36.3c19.5-11.3,45.7-17.5,73.7-17.5
					c28,0,54.2,6.2,73.7,17.5C312.9,287.1,322.6,300,322.6,313.2z"/>
				<path id="XMLID_276_" class="st7" d="M109.8,313.2v30.4c0,16.5,10.9,33,32.7,45.6c43.7,25.2,114.5,25.2,158.1,0
					c21.8-12.6,32.7-29.1,32.7-45.6v-30.4l0,0c0-16.5-10.9-33-32.7-45.6c-43.7-25.2-114.5-25.2-158.1,0
					C120.7,280.2,109.8,296.7,109.8,313.2L109.8,313.2z M322.6,313.2c0,13.2-9.7,26.1-27.3,36.3c-19.5,11.3-45.7,17.5-73.7,17.5
					c-28,0-54.2-6.2-73.7-17.5c-17.6-10.2-27.3-23.1-27.3-36.3c0-13.2,9.7-26.1,27.3-36.3c19.5-11.3,45.7-17.5,73.7-17.5
					c28,0,54.2,6.2,73.7,17.5C312.9,287.1,322.6,300,322.6,313.2z"/>
				<path class="st8" d="M333.3,346.5c-1.7,10.5-6.3,18.3-24.9,32.8c-26.3,20.5-92.7,28.9-131.3,16.1c-36.4-12-48-35.5-48-51.6
					l0.1-9.5c-5.6-6.7-8.6-13.9-8.6-21.2c0-7.5,3.1-14.9,9-21.7l0.1-13.3h-2.1c-11.9,10.6-17.9,22.8-17.9,35v30.4
					c0,16.5,10.9,33,32.7,45.6c43.7,25.2,114.5,25.2,158.1,0C321.3,377.4,332.2,362,333.3,346.5z"/>
			</g>
			<g>
				<path id="XMLID_291_" class="st0" d="M300.7,267.5c-43.7-25.2-114.5-25.2-158.1,0c-43.7,25.2-43.7,66.1,0,91.3
					c43.7,25.2,114.5,25.2,158.1,0C344.4,333.6,344.4,292.8,300.7,267.5z M295.3,349.5c-19.5,11.3-45.7,17.5-73.7,17.5
					c-28,0-54.2-6.2-73.7-17.5c-17.6-10.2-27.3-23.1-27.3-36.3c0-13.2,9.7-26.1,27.3-36.3c19.5-11.3,45.7-17.5,73.7-17.5
					c28,0,54.2,6.2,73.7,17.5c17.6,10.2,27.3,23.1,27.3,36.3C322.6,326.4,312.9,339.3,295.3,349.5z"/>
				<path id="XMLID_273_" class="st9" d="M300.7,267.5c-43.7-25.2-114.5-25.2-158.1,0c-43.7,25.2-43.7,66.1,0,91.3
					c43.7,25.2,114.5,25.2,158.1,0C344.4,333.6,344.4,292.8,300.7,267.5z M295.3,349.5c-19.5,11.3-45.7,17.5-73.7,17.5
					c-28,0-54.2-6.2-73.7-17.5c-17.6-10.2-27.3-23.1-27.3-36.3c0-13.2,9.7-26.1,27.3-36.3c19.5-11.3,45.7-17.5,73.7-17.5
					c28,0,54.2,6.2,73.7,17.5c17.6,10.2,27.3,23.1,27.3,36.3C322.6,326.4,312.9,339.3,295.3,349.5z"/>
			</g>
			<g id="XMLID_286_">
				<path id="XMLID_288_" class="st0" d="M322.6,313.2c0,5.2-1.5,10.3-4.4,15.2c-4.4-7.7-12.2-14.9-23-21.1
					c-19.5-11.3-45.7-17.5-73.7-17.5c-28,0-54.2,6.2-73.6,17.5c-10.7,6.2-18.6,13.4-23,21.1c-2.9-4.9-4.3-10-4.3-15.2
					c0-13.2,9.7-26.1,27.4-36.3c19.5-11.2,45.7-17.5,73.6-17.5c28,0,54.2,6.2,73.7,17.5C312.9,287.1,322.6,300,322.6,313.2z"/>
				<path id="XMLID_287_" class="st10" d="M322.6,313.2c0,5.2-1.5,10.3-4.4,15.2c-4.4-7.7-12.2-14.9-23-21.1
					c-19.5-11.3-45.7-17.5-73.7-17.5c-28,0-54.2,6.2-73.6,17.5c-10.7,6.2-18.6,13.4-23,21.1c-2.9-4.9-4.3-10-4.3-15.2
					c0-13.2,9.7-26.1,27.4-36.3c19.5-11.2,45.7-17.5,73.6-17.5c28,0,54.2,6.2,73.7,17.5C312.9,287.1,322.6,300,322.6,313.2z"/>
				<path class="st8" d="M148,276.9c-17.6,10.2-27.4,23.1-27.4,36.3c0,5.2,1.5,10.3,4.3,15.2c4.5-7.7,12.3-14.9,23-21.1
					c4.4-2.5,9.1-4.8,14.1-6.8c-4.3,1.6-17.3,5.9-12.6-6.6c5.7-14.8,33.3-30.8,53.7-33.5l0,0C182.3,262.5,163.1,268.2,148,276.9z"/>
			</g>
		</g>
		<path id="XMLID_285_" class="st11" d="M295.3,290.7c-19.5-11.3-45.7-17.5-73.7-17.5c-28,0-54.2,6.2-73.7,17.5
			c-14.5,8.4-23.7,18.6-26.4,29.4c2.8,10.7,11.9,21,26.4,29.4c19.5,11.3,45.7,17.5,73.7,17.5c28,0,54.2-6.2,73.7-17.5
			c14.5-8.4,23.7-18.6,26.4-29.4C319,309.3,309.8,299.1,295.3,290.7z"/>
		<path class="st2" d="M140.5,327.1c6.2,4.9,13.3,8,20.6,10.5c7.2,2.4,14.7,4.2,22.2,5.5c15,2.5,30.3,3.2,45.6,2.6
			c7.6-0.3,15.2-1,22.8-2.1c7.6-1.1,15.1-2.4,22.4-4.4c7.3-2,14.5-4.4,21.1-8c1.7-0.9,3.3-1.9,4.8-2.9c1.6-1.1,3-2.2,4.4-3.5
			c1.4-1.3,2.6-2.7,3.7-4.3c1.1-1.6,1.9-3.3,2.5-5.2c0.1,2-0.3,4-1,6c-0.7,1.9-1.7,3.8-2.9,5.5c-1.1,1.7-2.5,3.3-3.9,4.8
			c-1.4,1.5-3,2.9-4.6,4.1c-6.5,5.1-13.9,8.8-21.4,11.8c-7.6,2.9-15.4,5-23.4,6.5c-7.9,1.5-15.9,2.4-24,2.8
			c-16.1,0.7-32.4-0.8-48-5.1c-7.8-2.2-15.4-5.1-22.5-9c-3.5-2-7-4.2-10.1-6.7c-0.8-0.6-1.5-1.3-2.3-2c-0.7-0.7-1.5-1.4-2.2-2.1
			C142.9,330.3,141.6,328.7,140.5,327.1z"/>
		<g id="XMLID_259_">
			<g id="XMLID_280_">
				<path id="XMLID_282_" class="st12" d="M297.4,378.2c0-5,3.5-11.1,7.8-13.6c2.1-1.3,4.1-1.4,5.5-0.6l0,0l0,0l0,0l24.9,14.2
					c0,0,0,0,0,0l0,0l0,0c1.4,0.8,2.3,2.6,2.3,5c0,5-3.5,11.1-7.8,13.6c-2.2,1.3-4.1,1.4-5.5,0.6l0,0l-24.9-14.2l0,0
					C298.3,382.5,297.4,380.7,297.4,378.2z"/>
				<path id="XMLID_281_" class="st13" d="M299.7,383.3c-1.4-0.8-2.3-2.6-2.3-5.1c0-1.9,0.5-3.9,1.3-5.9l35.8,20.5
					c-1.2,1.7-2.7,3.1-4.4,4.1c-2.2,1.3-4.1,1.4-5.5,0.6L299.7,383.3L299.7,383.3z"/>
			</g>
			<g>
				<path class="st14" d="M420.4,418.8L420.4,418.8L420.4,418.8C420.4,418.8,420.4,418.8,420.4,418.8l-79.3-40.4c0,0,0,0,0,0
					l-0.1-0.1l0,0c-1.8-1-4.3-0.8-7.1,0.8c-5.6,3.3-10.1,11.2-10.1,17.7c0,3.3,1.2,5.5,3,6.6l74.5,48l0,0c2.9,1.8,6.4,2.9,10,2.9
					c10.4,0,18.9-8.5,18.9-18.9C430.3,428.2,426.3,422,420.4,418.8z"/>
				<path class="st12" d="M326.8,403.4l74.5,48c2.9,1.8,6.4,2.9,10,2.9c10,0,18.2-7.8,18.8-17.7c-1.4,6.2-11.7,11.5-24.4,4.4
					c-12.8-7.1-59.8-36.9-81.2-49.2c-0.5,1.7-0.8,3.4-0.8,5C323.8,400.1,325,402.4,326.8,403.4z"/>
				<path class="st0" d="M326.8,403.4c-1.9-1.1-3-3.3-3-6.6c0-6.5,4.5-14.4,10.1-17.7c2.8-1.6,5.2-1.8,7.1-0.8l7,3.6
					c-1.9-1-4.4-0.8-7.3,0.8c-5.8,3.4-10.4,11.5-10.4,18.2c0,3.3,1.1,5.7,3.1,6.8"/>
				<path class="st15" d="M333.4,407.7c-1.9-1.1-3-3.5-3.1-6.8c0-1.7,0.3-3.4,0.8-5.2c-2.4-1.4-4.6-2.7-6.6-3.9
					c-0.3,0.9-0.5,1.7-0.6,2.6c-0.1,0.4-0.1,0.8-0.1,1.3c0,0.4,0,0.8,0,1.2c0,3.3,1.2,5.5,3,6.6L333.4,407.7z"/>
			</g>
		</g>
	</g>
</g>
<g id="Paper_Planes">
	<g id="Paper_Plane_3_">
		<g>
			<g id="XMLID_373_">
				<polygon class="st0" points="137.2,449.8 77.2,419.8 53.3,430.3 				"/>
			</g>
			<g id="XMLID_372_" class="st16">
				<polygon class="st2" points="137.2,449.8 77.2,419.8 53.3,430.3 				"/>
			</g>
			<g id="XMLID_359_">
				<polygon class="st0" points="137.2,449.8 84.4,414.4 93.8,400.8 				"/>
			</g>
			<g id="XMLID_358_" class="st16">
				<polygon class="st2" points="137.2,449.8 84.4,414.4 93.8,400.8 				"/>
			</g>
			<g id="XMLID_357_">
				<polygon class="st0" points="84.4,414.4 85.4,423.8 137.2,449.8 				"/>
			</g>
			<g id="XMLID_356_" class="st15">
				<polygon points="84.4,414.4 85.4,423.8 137.2,449.8 				"/>
			</g>
		</g>
		<g>
			<g>
				<g>
					<path class="st14" d="M75.8,412.6c0.1,0,0.3-0.1,0.4-0.2c0.2-0.2,0.3-0.7,0.1-0.9c-0.4-0.5-0.8-1-1.2-1.5
						c-0.2-0.3-0.6-0.3-0.8-0.1c-0.3,0.2-0.3,0.6-0.1,0.9c0.4,0.5,0.8,1,1.2,1.5C75.5,412.6,75.6,412.6,75.8,412.6z"/>
				</g>
			</g>
			<g>
				<g>
					<path class="st14" d="M70.5,405.8c-0.7-1-1.4-2.1-2.1-3.2c-0.2-0.3-0.1-0.7,0.1-0.9c0.3-0.2,0.6-0.1,0.8,0.2
						c0.7,1,1.3,2.1,2,3.1c0.2,0.3,0.1,0.7-0.1,0.9c-0.1,0.1-0.2,0.1-0.4,0.1C70.8,406.1,70.6,406,70.5,405.8z M65.2,397.2
						c-0.6-1.1-1.2-2.2-1.8-3.4c-0.2-0.3-0.1-0.7,0.2-0.9c0.3-0.2,0.6-0.1,0.8,0.3c0.6,1.1,1.1,2.2,1.8,3.3c0.2,0.3,0.1,0.7-0.2,0.9
						c-0.1,0.1-0.2,0.1-0.3,0.1C65.5,397.5,65.4,397.4,65.2,397.2z M60.8,388.1c-0.5-1.2-1-2.4-1.4-3.6c-0.1-0.3,0-0.7,0.3-0.9
						c0.3-0.1,0.7,0,0.8,0.4c0.4,1.2,0.9,2.4,1.4,3.5c0.1,0.3,0,0.7-0.3,0.9c-0.1,0-0.2,0.1-0.3,0.1
						C61.1,388.4,60.9,388.3,60.8,388.1z M57.3,378.4c-0.4-1.3-0.7-2.5-1-3.7c-0.1-0.4,0.1-0.7,0.4-0.8c0.3-0.1,0.6,0.1,0.7,0.5
						c0.3,1.2,0.6,2.5,1,3.7c0.1,0.3-0.1,0.7-0.4,0.8c-0.1,0-0.1,0-0.2,0C57.6,378.8,57.4,378.7,57.3,378.4z M55,368.3
						c-0.2-1.3-0.4-2.6-0.5-3.9c0-0.4,0.2-0.7,0.5-0.7c0.3,0,0.6,0.2,0.7,0.6c0.1,1.3,0.3,2.5,0.5,3.8c0.1,0.4-0.2,0.7-0.5,0.8
						c0,0-0.1,0-0.1,0C55.3,368.8,55.1,368.6,55,368.3z M54,357.9c0-1-0.1-2-0.1-3.1l0-0.8c0-0.4,0.3-0.6,0.6-0.6c0,0,0,0,0,0
						c0.3,0,0.6,0.3,0.6,0.7l0,0.8c0,1,0,2,0.1,3c0,0.4-0.2,0.7-0.6,0.7c0,0,0,0,0,0C54.3,358.5,54,358.3,54,357.9z M54.8,348.2
						c-0.3,0-0.6-0.4-0.5-0.7c0.1-1.3,0.3-2.6,0.4-3.9c0-0.4,0.3-0.6,0.7-0.6c0.3,0.1,0.6,0.4,0.5,0.7c-0.2,1.3-0.3,2.6-0.4,3.8
						C55.4,348,55.2,348.2,54.8,348.2C54.8,348.2,54.8,348.2,54.8,348.2z M56.2,338c-0.3-0.1-0.5-0.4-0.4-0.8
						c0.3-1.3,0.6-2.5,0.9-3.8c0.1-0.3,0.4-0.5,0.7-0.4c0.3,0.1,0.5,0.5,0.4,0.8c-0.3,1.2-0.6,2.5-0.9,3.7c-0.1,0.3-0.3,0.5-0.6,0.5
						C56.3,338,56.2,338,56.2,338z M58.9,328.1c-0.3-0.1-0.5-0.5-0.3-0.9c0.4-1.2,0.9-2.4,1.4-3.6c0.1-0.3,0.5-0.5,0.8-0.3
						c0.3,0.2,0.4,0.5,0.3,0.9c-0.5,1.2-1,2.3-1.4,3.5c-0.1,0.3-0.3,0.4-0.6,0.4C59,328.2,59,328.1,58.9,328.1z M62.9,318.8
						c-0.3-0.2-0.4-0.6-0.2-0.9c0.6-1.1,1.2-2.2,1.9-3.3c0.2-0.3,0.6-0.4,0.8-0.2c0.3,0.2,0.3,0.6,0.2,0.9c-0.6,1.1-1.3,2.1-1.9,3.2
						c-0.1,0.2-0.3,0.3-0.5,0.3C63.1,318.9,63,318.9,62.9,318.8z M68.3,310.3c-0.3-0.2-0.3-0.6-0.1-0.9c0.8-1,1.5-2,2.3-2.9
						c0.2-0.3,0.6-0.3,0.8,0c0.2,0.2,0.3,0.7,0,0.9c-0.8,0.9-1.6,1.9-2.3,2.9c-0.1,0.2-0.3,0.2-0.5,0.2
						C68.5,310.5,68.4,310.4,68.3,310.3z M74.7,302.8c-0.2-0.3-0.2-0.7,0.1-0.9c0.9-0.9,1.8-1.7,2.7-2.5c0.3-0.2,0.6-0.2,0.8,0.1
						c0.2,0.3,0.2,0.7-0.1,0.9c-0.9,0.8-1.8,1.6-2.7,2.5c-0.1,0.1-0.3,0.2-0.4,0.2C75,303.1,74.8,303,74.7,302.8z M82.1,296.5
						c-0.2-0.3-0.1-0.7,0.2-0.9c1-0.7,2-1.4,3-2c0.3-0.2,0.6-0.1,0.8,0.3c0.2,0.3,0.1,0.7-0.2,0.9c-1,0.6-2,1.3-3,2
						c-0.1,0.1-0.2,0.1-0.3,0.1C82.4,296.8,82.2,296.7,82.1,296.5z"/>
				</g>
			</g>
			<g>
				<g>
					<path class="st14" d="M90.9,292.2c0.1,0,0.1,0,0.2,0c0.6-0.2,1.2-0.4,1.6-0.4c0.3-0.1,0.6-0.4,0.5-0.7c0-0.4-0.4-0.6-0.7-0.6
						c-0.5,0.1-1.1,0.2-1.8,0.5c-0.3,0.1-0.5,0.5-0.4,0.8C90.4,292,90.6,292.2,90.9,292.2z"/>
				</g>
			</g>
		</g>
	</g>
	<g id="Paper_Plane_2_">
		<g id="XMLID_16655_">
			<polygon id="XMLID_16653_" class="st0" points="371.7,62.1 310.2,43.3 357.6,75.8 			"/>
			<polygon id="XMLID_383_" class="st17" points="371.7,62.1 310.2,43.3 357.6,75.8 			"/>
			<polygon id="XMLID_16654_" class="st0" points="310.2,43.3 376.4,53.9 390.5,40.3 			"/>
			<polygon id="XMLID_386_" class="st17" points="310.2,43.3 376.4,53.9 390.5,40.3 			"/>
			<polygon id="XMLID_16619_" class="st0" points="376.4,53.9 376.5,70.3 371.7,62.1 310.2,43.3 			"/>
			<polygon id="XMLID_382_" class="st15" points="376.4,53.9 376.5,70.3 371.7,62.1 310.2,43.3 			"/>
			<polygon id="XMLID_16671_" class="st0" points="376.5,70.3 367,66.7 371.7,62.1 			"/>
			<polygon id="XMLID_377_" class="st15" points="371.7,62.1 367,66.7 368.5,67.3 			"/>
		</g>
		<g>
			<g>
				<g>
					<path class="st14" d="M388.9,59.3c-0.1,0.1-0.2,0.2-0.2,0.4c-0.1,0.3,0.2,0.7,0.5,0.8c0.6,0.2,1.2,0.3,1.8,0.5
						c0.3,0.1,0.7-0.1,0.7-0.4c0.1-0.3-0.2-0.7-0.5-0.8c-0.6-0.2-1.2-0.3-1.8-0.5C389.2,59.1,389,59.2,388.9,59.3z"/>
				</g>
			</g>
			<g>
				<g>
					<path class="st14" d="M397.2,61.5c1.2,0.4,2.4,0.8,3.6,1.3c0.3,0.1,0.5,0.5,0.4,0.8c-0.1,0.3-0.4,0.5-0.8,0.4
						c-1.2-0.4-2.3-0.8-3.5-1.2c-0.3-0.1-0.5-0.5-0.5-0.8c0-0.1,0.1-0.2,0.2-0.3C396.8,61.5,397,61.4,397.2,61.5z M406.6,65.1
						c1.2,0.5,2.3,1,3.5,1.6c0.3,0.2,0.5,0.5,0.4,0.9c-0.1,0.3-0.5,0.4-0.8,0.3c-1.1-0.5-2.3-1.1-3.4-1.6c-0.3-0.1-0.5-0.5-0.4-0.8
						c0-0.1,0.1-0.2,0.2-0.3C406.2,65.1,406.4,65,406.6,65.1z M415.7,69.7c1.1,0.6,2.2,1.3,3.3,2c0.3,0.2,0.4,0.6,0.3,0.9
						c-0.2,0.3-0.5,0.4-0.8,0.2c-1.1-0.7-2.1-1.3-3.2-2c-0.3-0.2-0.4-0.6-0.3-0.9c0-0.1,0.1-0.2,0.2-0.2
						C415.2,69.6,415.5,69.6,415.7,69.7z M424.3,75.3c1,0.8,2.1,1.6,3.1,2.4c0.3,0.2,0.4,0.6,0.2,0.9c-0.2,0.3-0.6,0.3-0.9,0.1
						c-1-0.8-2-1.6-3-2.3c-0.3-0.2-0.4-0.6-0.2-0.9c0-0.1,0.1-0.1,0.1-0.1C423.8,75.1,424.1,75.1,424.3,75.3z M432.3,82
						c0.9,0.9,1.9,1.8,2.8,2.7c0.3,0.3,0.3,0.7,0,0.9c-0.2,0.2-0.6,0.2-0.9-0.1c-0.9-0.9-1.8-1.8-2.7-2.7c-0.3-0.2-0.3-0.7-0.1-0.9
						c0,0,0.1-0.1,0.1-0.1C431.7,81.7,432,81.7,432.3,82z M439.4,89.6c0.6,0.8,1.3,1.6,1.9,2.4l0.5,0.7c0.2,0.3,0.2,0.7-0.1,0.9
						c0,0,0,0,0,0c-0.3,0.2-0.7,0.1-0.9-0.2l-0.5-0.7c-0.6-0.8-1.2-1.6-1.9-2.4c-0.2-0.3-0.2-0.7,0-0.9c0,0,0,0,0,0
						C438.8,89.2,439.1,89.3,439.4,89.6z M444.6,97.8c0.3-0.2,0.7-0.1,0.9,0.2c0.7,1.1,1.4,2.2,2,3.3c0.2,0.3,0.1,0.7-0.2,0.9
						c-0.3,0.2-0.7,0-0.9-0.3c-0.6-1.1-1.3-2.2-2-3.3C444.3,98.4,444.3,98,444.6,97.8C444.6,97.8,444.6,97.8,444.6,97.8z
						 M449.7,106.8c0.3-0.1,0.7,0,0.8,0.4c0.6,1.2,1.1,2.4,1.6,3.6c0.1,0.3,0,0.7-0.3,0.8c-0.3,0.1-0.7-0.1-0.8-0.4
						c-0.5-1.2-1-2.3-1.6-3.5c-0.1-0.3-0.1-0.6,0.2-0.8C449.6,106.8,449.6,106.8,449.7,106.8z M453.5,116.2c0.3-0.1,0.7,0.1,0.8,0.5
						c0.4,1.2,0.7,2.5,1.1,3.7c0.1,0.3-0.1,0.7-0.4,0.7c-0.3,0.1-0.7-0.2-0.8-0.5c-0.3-1.2-0.7-2.4-1-3.6c-0.1-0.3,0-0.5,0.2-0.7
						C453.4,116.3,453.5,116.3,453.5,116.2z M455.9,126.1c0.3,0,0.7,0.2,0.7,0.6c0.2,1.3,0.4,2.5,0.5,3.8c0,0.4-0.2,0.6-0.6,0.6
						c-0.3,0-0.6-0.3-0.7-0.6c-0.1-1.2-0.3-2.5-0.5-3.7c0-0.2,0.1-0.4,0.2-0.6C455.7,126.2,455.8,126.1,455.9,126.1z"/>
				</g>
			</g>
		</g>
	</g>
</g>
<g id="Stars_1_">
	<g id="Stars">
		<g>
			<path class="st18" d="M466.9,285.8c-2.7-1.6-6.5-1.4-10.7,1l-76.2,44c-8.1,4.7-14.7,15.9-14.7,24.9c0,4.4,1.6,7.5,4.1,9
				c1.4,0.8,6.8,3.9,8.2,4.7c2.7,1.5,6.4,1.3,10.5-1.1l76.2-44c8.1-4.7,14.7-15.8,14.7-24.9c0-4.4-1.6-7.5-4.1-9
				C473.6,289.7,468.2,286.6,466.9,285.8z"/>
			<g>
				<path class="st4" d="M381.4,370c-4.6,0-7.5-3.6-7.5-9.5c0-8.9,6.5-19.9,14.5-24.5l76.2-44c2.3-1.3,4.5-2,6.5-2
					c4.6,0,7.5,3.6,7.5,9.5c0,8.9-6.5,19.9-14.5,24.5l-76.2,44C385.7,369.3,383.4,370,381.4,370z"/>
				<path class="st6" d="M471.1,290.5L471.1,290.5c4.3,0,7,3.4,7,9c0,8.7-6.4,19.5-14.2,24.1l-76.2,44c-2.2,1.3-4.4,1.9-6.3,1.9
					c-2.1,0-3.8-0.8-5-2.2c-1.3-1.6-2-3.9-2-6.7c0-8.7,6.4-19.5,14.2-24.1l76.2-44C467,291.2,469.2,290.5,471.1,290.5 M471.1,289.5
					c-2,0-4.3,0.7-6.8,2.1l-76.2,44c-8.1,4.7-14.7,15.8-14.7,24.9c0,6.3,3.2,10,8,10c2,0,4.3-0.7,6.8-2.1l76.2-44
					c8.1-4.7,14.7-15.8,14.7-24.9C479.1,293.1,475.8,289.5,471.1,289.5L471.1,289.5z"/>
			</g>
		</g>
		<g id="Stars_4_">
			<g>
				<path class="st0" d="M400.1,345.4c0.3-0.6,0.3-1.2,0-1.3c-0.1-0.1-2.3-1.3-2.5-1.5c-0.1-0.1-0.2-0.1-0.4,0l-2.3,0.9l-0.8-1.6
					c0-0.1-0.1-0.2-0.2-0.2c-0.3-0.2-2.5-1.4-2.5-1.5c-0.3-0.2-0.9,0.2-1.1,0.9l-1.6,5.2c-0.1,0.3-0.3,0.6-0.5,0.8l-3.6,2.7
					c-0.6,0.4-0.8,1.5-0.4,1.8l2.6,1.9c0.2,0.1,0.2,0.4,0.2,0.7l-0.6,5.1c0,0.4,0.1,0.6,0.2,0.7c0.2,0.1,2.4,1.4,2.6,1.5
					c0.2,0.1,0.5,0,0.8-0.3l3.2-4.1c0.2-0.3,0.4-0.4,0.6-0.4l3.2,0.4c0.5,0.1,1.1-0.9,1-1.5l-0.6-4.4c0-0.3,0-0.6,0.2-0.9
					L400.1,345.4z"/>
				<g>
					<path class="st17" d="M400.1,344c-0.1-0.1-0.2-0.1-0.4,0l-3.6,1.4c-0.2,0.1-0.4,0-0.5-0.2l-0.8-1.7l2.3-0.9
						c0.1-0.1,0.3-0.1,0.4,0C397.8,342.7,400,344,400.1,344z"/>
					<path class="st17" d="M391.3,347.7c-0.1,0.3-0.3,0.6-0.5,0.8l-3.6,2.7c-0.2,0.1-0.3,0.3-0.4,0.5l-2.6-1.5
						c0.1-0.2,0.2-0.4,0.4-0.5l3.6-2.7c0.2-0.2,0.4-0.5,0.5-0.8v0L391.3,347.7z"/>
					<path class="st19" d="M393.9,341.6c-0.3-0.2-0.9,0.2-1.1,0.9l-1.6,5.2l-2.6-1.5l1.6-5.2c0.2-0.7,0.7-1.1,1.1-0.9
						C391.4,340.2,393.6,341.4,393.9,341.6C393.9,341.6,393.9,341.6,393.9,341.6z"/>
					<path class="st20" d="M389.4,354.9l-2.5-1.5c0,0,0,0,0,0l-2.6-1.9c-0.3-0.2-0.3-0.8,0-1.3l2.6,1.5c-0.3,0.5-0.3,1.1,0,1.3
						L389.4,354.9z"/>
					<path class="st16" d="M389,360.7c0,0.4,0.1,0.6,0.2,0.7c0,0,0,0,0,0c-0.2-0.1-2.4-1.4-2.6-1.5c-0.2-0.1-0.3-0.3-0.2-0.7
						l0.6-5.1c0-0.3,0-0.5-0.2-0.7l2.5,1.5c0,0,0,0,0,0l0,0v0c0.1,0.1,0.2,0.4,0.2,0.7L389,360.7z"/>
				</g>
				<g>
					<path id="XMLID_1150_" class="st0" d="M394.1,341.8l1.6,3.4c0.1,0.2,0.3,0.3,0.5,0.2l3.6-1.4c0.6-0.2,0.8,0.6,0.4,1.3l-2.6,4.8
						c-0.2,0.3-0.2,0.7-0.2,0.9l0.6,4.4c0.1,0.7-0.5,1.6-1,1.5l-3.2-0.4c-0.2,0-0.4,0.1-0.6,0.4l-3.2,4.1c-0.5,0.6-1.1,0.4-1-0.4
						l0.6-5.1c0-0.3,0-0.6-0.2-0.7l-2.6-1.9c-0.4-0.3-0.2-1.4,0.4-1.8l3.6-2.7c0.2-0.2,0.4-0.5,0.5-0.8l1.6-5.2
						C393.1,341.7,393.8,341.3,394.1,341.8z"/>
					<path id="XMLID_707_" class="st9" d="M394.1,341.8l1.6,3.4c0.1,0.2,0.3,0.3,0.5,0.2l3.6-1.4c0.6-0.2,0.8,0.6,0.4,1.3l-2.6,4.8
						c-0.2,0.3-0.2,0.7-0.2,0.9l0.6,4.4c0.1,0.7-0.5,1.6-1,1.5l-3.2-0.4c-0.2,0-0.4,0.1-0.6,0.4l-3.2,4.1c-0.5,0.6-1.1,0.4-1-0.4
						l0.6-5.1c0-0.3,0-0.6-0.2-0.7l-2.6-1.9c-0.4-0.3-0.2-1.4,0.4-1.8l3.6-2.7c0.2-0.2,0.4-0.5,0.5-0.8l1.6-5.2
						C393.1,341.7,393.8,341.3,394.1,341.8z"/>
				</g>
			</g>
			<g>
				<path class="st0" d="M418,335.1c0.3-0.6,0.3-1.2,0-1.3c-0.1-0.1-2.3-1.3-2.5-1.5c-0.1-0.1-0.2-0.1-0.4,0l-2.3,0.9l-0.8-1.6
					c0-0.1-0.1-0.2-0.2-0.2c-0.3-0.2-2.5-1.4-2.5-1.5c-0.3-0.2-0.9,0.2-1.1,0.9l-1.6,5.2c-0.1,0.3-0.3,0.6-0.5,0.8l-3.6,2.7
					c-0.6,0.4-0.8,1.5-0.4,1.8l2.6,1.9c0.2,0.1,0.2,0.4,0.2,0.7l-0.6,5.1c0,0.4,0.1,0.6,0.2,0.7c0.2,0.1,2.4,1.4,2.6,1.5
					c0.2,0.1,0.5,0,0.8-0.3l3.2-4.1c0.2-0.3,0.4-0.4,0.6-0.4l3.2,0.4c0.5,0.1,1.1-0.9,1-1.5l-0.6-4.4c0-0.3,0-0.6,0.2-0.9L418,335.1
					z"/>
				<g>
					<path class="st17" d="M417.9,333.7c-0.1-0.1-0.2-0.1-0.4,0l-3.6,1.4c-0.2,0.1-0.4,0-0.5-0.2l-0.8-1.7l2.3-0.9
						c0.1-0.1,0.3-0.1,0.4,0C415.7,332.4,417.8,333.7,417.9,333.7z"/>
					<path class="st17" d="M409.1,337.4c-0.1,0.3-0.3,0.6-0.5,0.8L405,341c-0.2,0.1-0.3,0.3-0.4,0.5l-2.6-1.5
						c0.1-0.2,0.2-0.4,0.4-0.5l3.6-2.7c0.2-0.2,0.4-0.5,0.5-0.8v0L409.1,337.4z"/>
					<path class="st19" d="M411.8,331.3c-0.3-0.2-0.9,0.2-1.1,0.9l-1.6,5.2l-2.6-1.5l1.6-5.2c0.2-0.7,0.7-1.1,1.1-0.9
						C409.3,329.9,411.4,331.1,411.8,331.3C411.8,331.3,411.8,331.3,411.8,331.3z"/>
					<path class="st20" d="M407.2,344.6l-2.5-1.5c0,0,0,0,0,0l-2.6-1.9c-0.3-0.2-0.3-0.8,0-1.3l2.6,1.5c-0.3,0.5-0.3,1.1,0,1.3
						L407.2,344.6z"/>
					<path class="st16" d="M406.8,350.4c0,0.4,0.1,0.6,0.2,0.7c0,0,0,0,0,0c-0.2-0.1-2.4-1.4-2.6-1.5c-0.2-0.1-0.3-0.3-0.2-0.7
						l0.6-5.1c0-0.3,0-0.5-0.2-0.7l2.5,1.5c0,0,0,0,0,0l0,0v0c0.1,0.1,0.2,0.4,0.2,0.7L406.8,350.4z"/>
				</g>
				<g>
					<path id="XMLID_704_" class="st0" d="M411.9,331.5l1.6,3.4c0.1,0.2,0.3,0.3,0.5,0.2l3.6-1.4c0.6-0.2,0.8,0.6,0.4,1.3l-2.6,4.8
						c-0.2,0.3-0.2,0.7-0.2,0.9l0.6,4.4c0.1,0.7-0.5,1.6-1,1.5l-3.2-0.4c-0.2,0-0.4,0.1-0.6,0.4l-3.2,4.1c-0.5,0.6-1.1,0.4-1-0.4
						l0.6-5.1c0-0.3,0-0.6-0.2-0.7l-2.6-1.9c-0.4-0.3-0.2-1.4,0.4-1.8l3.6-2.7c0.2-0.2,0.4-0.5,0.5-0.8l1.6-5.2
						C410.9,331.4,411.7,331,411.9,331.5z"/>
					<path id="XMLID_410_" class="st9" d="M411.9,331.5l1.6,3.4c0.1,0.2,0.3,0.3,0.5,0.2l3.6-1.4c0.6-0.2,0.8,0.6,0.4,1.3l-2.6,4.8
						c-0.2,0.3-0.2,0.7-0.2,0.9l0.6,4.4c0.1,0.7-0.5,1.6-1,1.5l-3.2-0.4c-0.2,0-0.4,0.1-0.6,0.4l-3.2,4.1c-0.5,0.6-1.1,0.4-1-0.4
						l0.6-5.1c0-0.3,0-0.6-0.2-0.7l-2.6-1.9c-0.4-0.3-0.2-1.4,0.4-1.8l3.6-2.7c0.2-0.2,0.4-0.5,0.5-0.8l1.6-5.2
						C410.9,331.4,411.7,331,411.9,331.5z"/>
				</g>
			</g>
			<g>
				<path class="st0" d="M435.8,324.8c0.3-0.6,0.3-1.2,0-1.3c-0.1-0.1-2.3-1.3-2.5-1.5c-0.1-0.1-0.2-0.1-0.4,0l-2.3,0.9l-0.8-1.6
					c0-0.1-0.1-0.2-0.2-0.2c-0.3-0.2-2.5-1.4-2.5-1.5c-0.3-0.2-0.9,0.2-1.1,0.9l-1.6,5.2c-0.1,0.3-0.3,0.6-0.5,0.8l-3.6,2.7
					c-0.6,0.4-0.8,1.5-0.4,1.8l2.6,1.9c0.2,0.1,0.2,0.4,0.2,0.7l-0.6,5.1c0,0.4,0.1,0.6,0.2,0.7c0.2,0.1,2.4,1.4,2.6,1.5
					c0.2,0.1,0.5,0,0.8-0.3l3.2-4.1c0.2-0.3,0.4-0.4,0.6-0.4l3.2,0.4c0.5,0.1,1.1-0.9,1-1.5l-0.6-4.4c0-0.3,0-0.6,0.2-0.9
					L435.8,324.8z"/>
				<g>
					<path class="st17" d="M435.8,323.4c-0.1-0.1-0.2-0.1-0.4,0l-3.6,1.4c-0.2,0.1-0.4,0-0.5-0.2l-0.8-1.7l2.3-0.9
						c0.1-0.1,0.3-0.1,0.4,0C433.5,322.1,435.7,323.4,435.8,323.4z"/>
					<path class="st17" d="M426.9,327.1c-0.1,0.3-0.3,0.6-0.5,0.8l-3.6,2.7c-0.2,0.1-0.3,0.3-0.4,0.5l-2.6-1.5
						c0.1-0.2,0.2-0.4,0.4-0.5l3.6-2.7c0.2-0.2,0.4-0.5,0.5-0.8v0L426.9,327.1z"/>
					<path class="st19" d="M429.6,321c-0.3-0.2-0.9,0.2-1.1,0.9l-1.6,5.2l-2.6-1.5l1.6-5.2c0.2-0.7,0.7-1.1,1.1-0.9
						C427.1,319.6,429.3,320.8,429.6,321C429.6,321,429.6,321,429.6,321z"/>
					<path class="st20" d="M425.1,334.3l-2.5-1.5c0,0,0,0,0,0l-2.6-1.9c-0.3-0.2-0.3-0.8,0-1.3l2.6,1.5c-0.3,0.5-0.3,1.1,0,1.3
						L425.1,334.3z"/>
					<path class="st16" d="M424.7,340.1c0,0.4,0.1,0.6,0.2,0.7c0,0,0,0,0,0c-0.2-0.1-2.4-1.4-2.6-1.5c-0.2-0.1-0.3-0.3-0.2-0.7
						l0.6-5.1c0-0.3,0-0.5-0.2-0.7l2.5,1.5c0,0,0,0,0,0l0,0v0c0.1,0.1,0.2,0.4,0.2,0.7L424.7,340.1z"/>
				</g>
				<g>
					<path id="XMLID_409_" class="st0" d="M429.8,321.2l1.6,3.4c0.1,0.2,0.3,0.3,0.5,0.2l3.6-1.4c0.6-0.2,0.8,0.6,0.4,1.3l-2.6,4.8
						c-0.2,0.3-0.2,0.7-0.2,0.9l0.6,4.4c0.1,0.7-0.5,1.6-1,1.5l-3.2-0.4c-0.2,0-0.4,0.1-0.6,0.4l-3.2,4.1c-0.5,0.6-1.1,0.4-1-0.4
						l0.6-5.1c0-0.3,0-0.6-0.2-0.7l-2.6-1.9c-0.4-0.3-0.2-1.4,0.4-1.8l3.6-2.7c0.2-0.2,0.4-0.5,0.5-0.8l1.6-5.2
						C428.8,321.1,429.5,320.7,429.8,321.2z"/>
					<path id="XMLID_395_" class="st9" d="M429.8,321.2l1.6,3.4c0.1,0.2,0.3,0.3,0.5,0.2l3.6-1.4c0.6-0.2,0.8,0.6,0.4,1.3l-2.6,4.8
						c-0.2,0.3-0.2,0.7-0.2,0.9l0.6,4.4c0.1,0.7-0.5,1.6-1,1.5l-3.2-0.4c-0.2,0-0.4,0.1-0.6,0.4l-3.2,4.1c-0.5,0.6-1.1,0.4-1-0.4
						l0.6-5.1c0-0.3,0-0.6-0.2-0.7l-2.6-1.9c-0.4-0.3-0.2-1.4,0.4-1.8l3.6-2.7c0.2-0.2,0.4-0.5,0.5-0.8l1.6-5.2
						C428.8,321.1,429.5,320.7,429.8,321.2z"/>
				</g>
			</g>
			<g>
				<path class="st0" d="M453.7,314.5c0.3-0.6,0.3-1.2,0-1.3c-0.1-0.1-2.3-1.3-2.5-1.5c-0.1-0.1-0.2-0.1-0.4,0l-2.3,0.9l-0.8-1.6
					c0-0.1-0.1-0.2-0.2-0.2c-0.3-0.2-2.5-1.4-2.5-1.5c-0.3-0.2-0.9,0.2-1.1,0.9l-1.6,5.2c-0.1,0.3-0.3,0.6-0.5,0.8l-3.6,2.7
					c-0.6,0.4-0.8,1.5-0.4,1.8l2.6,1.9c0.2,0.1,0.2,0.4,0.2,0.7l-0.6,5.1c0,0.4,0.1,0.6,0.2,0.7c0.2,0.1,2.4,1.4,2.6,1.5
					c0.2,0.1,0.5,0,0.8-0.3l3.2-4.1c0.2-0.3,0.4-0.4,0.6-0.4l3.2,0.4c0.5,0.1,1.1-0.9,1-1.5l-0.6-4.4c0-0.3,0-0.6,0.2-0.9
					L453.7,314.5z"/>
				<g>
					<path class="st17" d="M453.6,313.1c-0.1-0.1-0.2-0.1-0.4,0l-3.6,1.4c-0.2,0.1-0.4,0-0.5-0.2l-0.8-1.7l2.3-0.9
						c0.1-0.1,0.3-0.1,0.4,0C451.4,311.8,453.5,313.1,453.6,313.1z"/>
					<path class="st17" d="M444.8,316.8c-0.1,0.3-0.3,0.6-0.5,0.8l-3.6,2.7c-0.2,0.1-0.3,0.3-0.4,0.5l-2.6-1.5
						c0.1-0.2,0.2-0.4,0.4-0.5l3.6-2.7c0.2-0.2,0.4-0.5,0.5-0.8v0L444.8,316.8z"/>
					<path class="st19" d="M447.5,310.7c-0.3-0.2-0.9,0.2-1.1,0.9l-1.6,5.2l-2.6-1.5l1.6-5.2c0.2-0.7,0.7-1.1,1.1-0.9
						C445,309.3,447.1,310.5,447.5,310.7C447.5,310.7,447.5,310.7,447.5,310.7z"/>
					<path class="st20" d="M442.9,324l-2.5-1.5c0,0,0,0,0,0l-2.6-1.9c-0.3-0.2-0.3-0.8,0-1.3l2.6,1.5c-0.3,0.5-0.3,1.1,0,1.3
						L442.9,324z"/>
					<path class="st16" d="M442.5,329.8c0,0.4,0.1,0.6,0.2,0.7c0,0,0,0,0,0c-0.2-0.1-2.4-1.4-2.6-1.5c-0.2-0.1-0.3-0.3-0.2-0.7
						l0.6-5.1c0-0.3,0-0.5-0.2-0.7l2.5,1.5c0,0,0,0,0,0l0,0v0c0.1,0.1,0.2,0.4,0.2,0.7L442.5,329.8z"/>
				</g>
				<g>
					<path id="XMLID_394_" class="st0" d="M447.6,310.9l1.6,3.4c0.1,0.2,0.3,0.3,0.5,0.2l3.6-1.4c0.6-0.2,0.8,0.6,0.4,1.3l-2.6,4.8
						c-0.2,0.3-0.2,0.7-0.2,0.9l0.6,4.4c0.1,0.7-0.5,1.6-1,1.5l-3.2-0.4c-0.2,0-0.4,0.1-0.6,0.4l-3.2,4.1c-0.5,0.6-1.1,0.4-1-0.4
						l0.6-5.1c0-0.3,0-0.6-0.2-0.7l-2.6-1.9c-0.4-0.3-0.2-1.4,0.4-1.8l3.6-2.7c0.2-0.2,0.4-0.5,0.5-0.8l1.6-5.2
						C446.6,310.8,447.4,310.4,447.6,310.9z"/>
					<path id="XMLID_392_" class="st9" d="M447.6,310.9l1.6,3.4c0.1,0.2,0.3,0.3,0.5,0.2l3.6-1.4c0.6-0.2,0.8,0.6,0.4,1.3l-2.6,4.8
						c-0.2,0.3-0.2,0.7-0.2,0.9l0.6,4.4c0.1,0.7-0.5,1.6-1,1.5l-3.2-0.4c-0.2,0-0.4,0.1-0.6,0.4l-3.2,4.1c-0.5,0.6-1.1,0.4-1-0.4
						l0.6-5.1c0-0.3,0-0.6-0.2-0.7l-2.6-1.9c-0.4-0.3-0.2-1.4,0.4-1.8l3.6-2.7c0.2-0.2,0.4-0.5,0.5-0.8l1.6-5.2
						C446.6,310.8,447.4,310.4,447.6,310.9z"/>
				</g>
			</g>
			<g>
				<path class="st0" d="M471.5,304.2c0.3-0.6,0.3-1.2,0-1.3c-0.1-0.1-2.3-1.3-2.5-1.5c-0.1-0.1-0.2-0.1-0.4,0l-2.3,0.9l-0.8-1.6
					c0-0.1-0.1-0.2-0.2-0.2c-0.3-0.2-2.5-1.4-2.5-1.5c-0.3-0.2-0.9,0.2-1.1,0.9l-1.6,5.2c-0.1,0.3-0.3,0.6-0.5,0.8l-3.6,2.7
					c-0.6,0.4-0.8,1.5-0.4,1.8l2.6,1.9c0.2,0.1,0.2,0.4,0.2,0.7l-0.6,5.1c0,0.4,0.1,0.6,0.2,0.7c0.2,0.1,2.4,1.4,2.6,1.5
					c0.2,0.1,0.5,0,0.8-0.3l3.2-4.1c0.2-0.3,0.4-0.4,0.6-0.4l3.2,0.4c0.5,0.1,1.1-0.9,1-1.5l-0.6-4.4c0-0.3,0-0.6,0.2-0.9
					L471.5,304.2z"/>
				<g>
					<path class="st17" d="M471.5,302.9c-0.1-0.1-0.2-0.1-0.4,0l-3.6,1.4c-0.2,0.1-0.4,0-0.5-0.2l-0.8-1.7l2.3-0.9
						c0.1-0.1,0.3-0.1,0.4,0C469.2,301.6,471.4,302.8,471.5,302.9z"/>
					<path class="st17" d="M462.6,306.6c-0.1,0.3-0.3,0.6-0.5,0.8l-3.6,2.7c-0.2,0.1-0.3,0.3-0.4,0.5l-2.6-1.5
						c0.1-0.2,0.2-0.4,0.4-0.5l3.6-2.7c0.2-0.2,0.4-0.5,0.5-0.8v0L462.6,306.6z"/>
					<path class="st19" d="M465.3,300.4c-0.3-0.2-0.9,0.2-1.1,0.9l-1.6,5.2l-2.6-1.5l1.6-5.2c0.2-0.7,0.7-1.1,1.1-0.9
						C462.8,299,465,300.3,465.3,300.4C465.3,300.4,465.3,300.4,465.3,300.4z"/>
					<path class="st20" d="M460.8,313.7l-2.5-1.5c0,0,0,0,0,0l-2.6-1.9c-0.3-0.2-0.3-0.8,0-1.3l2.6,1.5c-0.3,0.5-0.3,1.1,0,1.3
						L460.8,313.7z"/>
					<path class="st16" d="M460.4,319.5c0,0.4,0.1,0.6,0.2,0.7c0,0,0,0,0,0c-0.2-0.1-2.4-1.4-2.6-1.5c-0.2-0.1-0.3-0.3-0.2-0.7
						l0.6-5.1c0-0.3,0-0.5-0.2-0.7l2.5,1.5c0,0,0,0,0,0l0,0v0c0.1,0.1,0.2,0.4,0.2,0.7L460.4,319.5z"/>
				</g>
				<g>
					<path id="XMLID_389_" class="st0" d="M465.5,300.6l1.6,3.4c0.1,0.2,0.3,0.3,0.5,0.2l3.6-1.4c0.6-0.2,0.8,0.6,0.4,1.3l-2.6,4.8
						c-0.2,0.3-0.2,0.7-0.2,0.9l0.6,4.4c0.1,0.7-0.5,1.6-1,1.5l-3.2-0.4c-0.2,0-0.4,0.1-0.6,0.4l-3.2,4.1c-0.5,0.6-1.1,0.4-1-0.4
						l0.6-5.1c0-0.3,0-0.6-0.2-0.7l-2.6-1.9c-0.4-0.3-0.2-1.4,0.4-1.8l3.6-2.7c0.2-0.2,0.4-0.5,0.5-0.8l1.6-5.2
						C464.5,300.5,465.2,300.1,465.5,300.6z"/>
					<path id="XMLID_387_" class="st9" d="M465.5,300.6l1.6,3.4c0.1,0.2,0.3,0.3,0.5,0.2l3.6-1.4c0.6-0.2,0.8,0.6,0.4,1.3l-2.6,4.8
						c-0.2,0.3-0.2,0.7-0.2,0.9l0.6,4.4c0.1,0.7-0.5,1.6-1,1.5l-3.2-0.4c-0.2,0-0.4,0.1-0.6,0.4l-3.2,4.1c-0.5,0.6-1.1,0.4-1-0.4
						l0.6-5.1c0-0.3,0-0.6-0.2-0.7l-2.6-1.9c-0.4-0.3-0.2-1.4,0.4-1.8l3.6-2.7c0.2-0.2,0.4-0.5,0.5-0.8l1.6-5.2
						C464.5,300.5,465.2,300.1,465.5,300.6z"/>
				</g>
			</g>
		</g>
	</g>
	<path id="Star_3_" class="st18" d="M478.3,57l-8,3.4l-1.7,8.5c-0.2,1-1.5,1.4-2.2,0.6l-5.7-6.5l-8.6,1c-1.1,0.1-1.8-1-1.3-1.9
		l4.5-7.5l-3.6-7.9c-0.4-1,0.4-2,1.5-1.8l8.5,1.9l6.4-5.9c0.8-0.7,2.1-0.2,2.2,0.8l0.8,8.7l7.6,4.3C479.4,55.2,479.3,56.5,478.3,57z
		"/>
	<path id="Star" class="st18" d="M434.2,42.2c-0.1,0.1-0.1,0.2-0.2,0.2c-0.3,0.3-0.8,0.3-1.2,0.1l-4.5-2.3l-4.5,2.3
		c-0.4,0.2-0.8,0.2-1.2-0.1c-0.3-0.3-0.5-0.7-0.4-1.1l0.9-5l-3.6-3.5c-0.3-0.3-0.4-0.7-0.3-1.1c0.1-0.4,0.5-0.7,0.9-0.8l5-0.7
		l2.2-4.5c0.2-0.4,0.6-0.6,1-0.6c0.4,0,0.8,0.2,1,0.6l2.2,4.5l5,0.7c0.4,0.1,0.8,0.4,0.9,0.8c0.1,0.4,0,0.9-0.3,1.1l0,0l-3.6,3.5
		l0.9,5C434.5,41.6,434.4,41.9,434.2,42.2z M420,31.8c0,0,0,0.1-0.1,0.1c-0.1,0.2,0,0.3,0.1,0.4l3.9,3.8l-0.9,5.3
		c0,0.2,0,0.3,0.2,0.4c0.1,0.1,0.3,0.1,0.4,0l4.8-2.5l4.8,2.5c0.1,0.1,0.3,0.1,0.4,0c0.1-0.1,0.2-0.3,0.2-0.4l-0.9-5.3l3.9-3.8
		c0.1-0.1,0.2-0.3,0.1-0.4c-0.1-0.2-0.2-0.3-0.3-0.3l-5.3-0.8l-2.4-4.8c-0.1-0.1-0.2-0.2-0.4-0.2c-0.2,0-0.3,0.1-0.4,0.2l-2.4,4.8
		l-5.3,0.8C420.1,31.6,420,31.7,420,31.8z"/>
</g>
<g id="Speech_Bubbles_1_">
	<g id="Speech_Bubbles">
		<g id="Speech_Bubble_15_">
			<g id="Speech_Bubble_1_">
				<path class="st12" d="M378.5,109c-7.5-4.4-17.9-3.8-29.3,2.8c-23,13.3-41.7,45.9-41.7,72.8c0,13.5,4.7,23,12.4,27.4
					c1.8,1,8.7,5,8.7,5c-0.8,5.2-2.9,10.6-9.7,14.7c-0.4,0.3-0.2,0.7,0.2,0.9c0.2,0.1,10.2,5.9,10.6,6.1c0.2,0.1,0.3,0.1,0.5,0.1
					c10.4,0,22.5-7,25.8-21.5c1.3-0.6,2.5-1.2,3.8-2c23-13.3,41.7-45.9,41.7-72.8c0-13.5-4.7-23-12.4-27.5
					C387.3,114.1,380.3,110,378.5,109z"/>
				<path class="st14" d="M359.8,117.9c-23,13.3-41.7,45.9-41.7,72.8c0,18.2,8.6,29.2,21.3,30.2c-0.5,5.8-2.2,12.3-10,16.9
					c-0.6,0.4,0.2,1.1,0.7,1.1c10.4,0,22.5-7,25.8-21.5c1.3-0.6,2.5-1.2,3.8-2c23-13.3,41.7-45.9,41.7-72.8
					C401.5,115.7,382.8,104.6,359.8,117.9z"/>
				<path class="st13" d="M329.4,237.8c-0.4,0.2-0.2,0.6,0.1,0.8c-1.2-0.7-10.3-5.9-10.4-6c-0.4-0.2-0.7-0.6-0.2-0.9
					c6.8-4,9-9.5,9.7-14.7l1.2,0.7l1.1,0.6c2.6,1.4,5.5,2.3,8.6,2.5C338.9,226.6,337.2,233.2,329.4,237.8z"/>
			</g>
			<g>
				<g>
					<path class="st4" d="M355.4,194.9c-1.1-0.8-1.7-2.2-1.7-4.3c0-2.1,0.5-4.1,1.6-6.1c1.1-2,2.5-3.5,4.2-4.5
						c1.7-1,3.1-1.1,4.2-0.4c1.1,0.7,1.6,2.1,1.6,4.2c0,2.1-0.6,4.1-1.7,6.2c-1.1,2.1-2.5,3.6-4.2,4.6
						C357.9,195.6,356.5,195.7,355.4,194.9z M353.9,140.5l11.3-6.5l-1.9,38.1l-7.5,4.4L353.9,140.5z"/>
				</g>
			</g>
		</g>
		<path class="st15" d="M365.3,211.6c12.3-9,22.9-23.3,29.3-38.6C382.4,182.1,371.8,196.3,365.3,211.6z"/>
		<g id="Speech_Bubble_16_">
			<g id="Speech_Bubble_13_">
				<path class="st18" d="M443.9,263.8c-4.3,0-7.4-2.9-9.4-6.7c12.8-15.7,21.4-36.6,21.4-54.9c0-13.6-4.7-23.1-12.4-27.5
					c-1.8-1-8.8-5.1-10.5-6.1c-7.5-4.3-17.9-3.7-29.3,2.8c-23,13.3-41.7,45.9-41.7,72.8c0,13.5,4.7,23,12.4,27.5
					c1.8,1,8.8,5.1,10.5,6.1c7.5,4.4,17.9,3.8,29.4-2.8c3-1.7,5.9-3.8,8.7-6.1c7.7,6.1,17.2-0.6,20.9-3.7
					C444.3,264.7,444.3,263.7,443.9,263.8z"/>
				<g>
					<path class="st4" d="M395.7,279.9c-13.9,0-22.6-11.3-22.6-29.6c0-26.6,18.6-59,41.4-72.2c6.4-3.7,12.5-5.5,18.1-5.5
						c13.9,0,22.6,11.3,22.6,29.6c0,17.5-8.1,38.3-21.2,54.5l-0.3,0.3l0.2,0.4c2.4,4.4,5.8,6.9,9.6,7c0,0.1-0.1,0.2-0.1,0.2
						c-2.7,2.3-7.9,6.1-13.4,6.1c0,0,0,0,0,0c-2.5,0-4.7-0.8-6.7-2.4l-0.4-0.3l-0.4,0.3c-2.8,2.3-5.7,4.4-8.6,6
						C407.4,278.1,401.3,279.9,395.7,279.9z"/>
					<path class="st0" d="M432.6,172l0,1.3c13.5,0,21.9,11.1,21.9,29c0,17.3-8.1,38-21.1,54l-0.5,0.7l0.4,0.8
						c2.2,4.1,5.2,6.6,8.7,7.2c-2.8,2.2-7.4,5.2-12.1,5.2c-2.3,0-4.4-0.7-6.3-2.2l-0.8-0.7l-0.8,0.7c-2.8,2.3-5.7,4.3-8.5,6
						c-6.3,3.6-12.3,5.5-17.8,5.5c-13.5,0-21.9-11.1-21.9-29c0-26.4,18.4-58.6,41-71.6c6.3-3.6,12.3-5.5,17.8-5.5V172 M432.6,172
						c-5.6,0-11.8,1.8-18.5,5.6c-23,13.3-41.7,45.9-41.7,72.8c0,19.2,9.5,30.3,23.2,30.3c5.6,0,11.8-1.8,18.5-5.6
						c3-1.7,5.9-3.8,8.7-6.1c2.3,1.8,4.7,2.5,7.1,2.5c5.7,0,11.2-4,13.8-6.2c0.5-0.4,0.6-1.4,0.1-1.4c0,0,0,0,0,0c0,0-0.1,0-0.1,0
						c-4.2,0-7.3-3-9.3-6.7c12.8-15.7,21.4-36.6,21.4-54.9C455.8,183.1,446.4,172,432.6,172L432.6,172z"/>
				</g>
			</g>
			<g>
				<path class="st14" d="M412,230.9c1-2.4,2.3-5.2,4.2-8.5c1.3-2.4,2.3-4.3,2.9-5.8c0.6-1.5,0.9-2.9,0.9-4.3c0-2-0.6-3.2-1.8-3.7
					c-1.2-0.5-2.8-0.1-4.8,1c-1.9,1.1-3.6,2.6-5.1,4.5c-1.5,1.9-2.7,4.1-3.7,6.6l-7.4-1.5c1.7-4.4,4-8.4,6.9-12
					c2.9-3.6,6.3-6.5,10.3-8.8c4.7-2.7,8.4-3.5,11.2-2.5c2.8,1,4.2,3.9,4.2,8.6c0,2.2-0.3,4.3-0.8,6.3c-0.5,2-1.2,3.8-2,5.4
					c-0.8,1.6-1.8,3.5-3.1,5.8c-1.5,2.6-2.6,4.8-3.3,6.4c-0.7,1.6-1,3.3-1,5l-9.2,5.3C410.6,235.8,411.1,233.2,412,230.9z
					 M411.1,256.6c-1.1-0.8-1.7-2.2-1.7-4.3c0-2.1,0.5-4.1,1.6-6.1c1.1-2,2.5-3.5,4.2-4.5c1.7-1,3.1-1.1,4.2-0.4
					c1.1,0.7,1.6,2.1,1.6,4.2c0,2.1-0.6,4.1-1.7,6.2c-1.1,2.1-2.5,3.6-4.2,4.6C413.6,257.3,412.2,257.4,411.1,256.6z"/>
			</g>
		</g>
	</g>
</g>
<g id="FAQ_1_">
	<g id="Speech_Bubble_3_">
		<g id="Speech_Bubble_12_">
			<g>
				<path class="st0" d="M200.8,185.3l-46,26.6L173,243c0.4,0.9,1,1.5,1.7,2c2.2,1.2,15.1,8.7,15.8,9.1c2.2,1.3,5.3,0.4,6.2-2.5
					l19.8-57.2L200.8,185.3z"/>
				<path class="st15" d="M200.8,185.3l-46,26.6L173,243c0.4,0.9,1,1.5,1.7,2c2.2,1.2,15.1,8.7,15.8,9.1c2.2,1.3,5.3,0.4,6.2-2.5
					l19.8-57.2L200.8,185.3z"/>
				<path class="st0" d="M170.6,221.1l18.3,31.1c1.6,3.6,6.8,3.2,7.9-0.5l19.8-57.2L170.6,221.1z"/>
			</g>
			<g>
				<path id="XMLID_355_" class="st0" d="M252.1,26L78.6,126.1c-2.2,1.3-4,4.4-4,6.9v120.4c0,2.5,1.8,5.6,4,6.9l14.3,8
					c2.2,1.2,5.8,1.2,8,0l173.5-100.1c2.2-1.3,4-4.4,4-6.9V40.8c0-2.5-1.8-5.6-4-6.9l-14.3-8C257.9,24.7,254.3,24.7,252.1,26z"/>
				<path id="XMLID_345_" class="st10" d="M278.3,40.1c-0.3-2-1.9-2.7-3.9-1.6L100.9,138.6c-1.1,0.6-2.1,1.7-2.8,3L75.9,129
					c0.7-1.2,1.7-2.2,2.7-2.8L252.1,26c2.2-1.3,5.8-1.3,8,0l14.3,8C276.4,35.1,278,37.7,278.3,40.1z"/>
				<path id="XMLID_304_" class="st0" d="M96.9,266.4V146c0-2.5,1.8-5.6,4-6.9L274.4,39c2.2-1.3,4-0.2,4,2.3v120.4
					c0,2.5-1.8,5.6-4,6.9L100.9,268.7C98.7,270,96.9,268.9,96.9,266.4z"/>
				<path id="XMLID_284_" class="st15" d="M100.9,268.2c-2.1,1.2-6,1.3-8,0l-14.3-8c-2.2-1.2-4-4.3-4-6.8V133c0-1.3,0.5-2.8,1.3-4.1
					l22.2,12.7c-0.7,1.2-1.2,2.6-1.2,3.9v120.4C96.9,268.3,98.6,269.6,100.9,268.2z"/>
			</g>
		</g>
		<g id="FAQ">
			<g>
				<path class="st18" d="M145.6,170l-1.7-1c-1.3-0.8-3-0.8-4.4,0l-10.6,6.1v-14.4l19.6-11.3c1.9-1.1,3-3.1,3-5.3V136
					c0-2.2-1.2-4.2-3-5.3l0,0c-1.9-1.1-4.2-1.1-6.1,0l-27.1,15.7c-3.3,1.9-5.3,5.4-5.3,9.2v75.2c0,2.2,1.2,4.2,3,5.3l0,0
					c1.9,1.1,4.2,1.1,6.1,0l6.8-3.9c1.9-1.1,3-3.1,3-5.3v-29.5l16.7-9.6c1.3-0.8,2.2-2.2,2.2-3.8v-10.2
					C147.8,172.2,146.9,170.8,145.6,170z"/>
				<path class="st19" d="M119.7,235.7l-0.6,0.3c-0.9,0.5-2,0.8-3,0.8c-1.1,0-2.1-0.3-3-0.8c-1.9-1.1-3-3.1-3-5.3v-75.2
					c0-1.8,0.5-3.5,1.3-5l6.1,3.5c-0.8,1.5-1.3,3.2-1.3,5v74.5C116.1,235.4,118.1,236.6,119.7,235.7z"/>
				<path class="st4" d="M128.9,160.7v21.5l16.6-9.6c1-0.6,2.2,0.1,2.2,1.3V184c0,1.5-0.8,3-2.2,3.7l-16.7,9.6v29.5
					c0,2.2-1.2,4.2-3,5.3l-6.2,3.6c-1.6,0.9-3.7-0.2-3.7-2.1v-74.5c0-3.8,2-7.3,5.3-9.2l26.9-15.5c1.5-0.8,3.3,0.2,3.3,1.9v7.8
					c0,2.2-1.2,4.2-3,5.2L128.9,160.7z"/>
			</g>
			<g>
				<path class="st18" d="M187,115.2c-0.5-1.8-1.7-3.3-3.3-4.2c-1.1-0.6-2.4-1-3.6-1c-1.2,0-2.5,0.3-3.6,1l-6.7,3.9
					c-1.8,1-3,2.7-3.4,4.7L146.3,211c-0.4,1.6,0.4,3.2,1.8,4.1l1.8,1.1c1.2,0.7,2.6,0.7,3.8,0l8.1-4.7c1-0.6,1.9-1.6,2.7-2.9
					c0.7-1.3,1.2-2.6,1.5-3.8l3.3-16.7l16.4-9.5l1.7,6.8c0.4,1,0.9,1.8,1.5,2.2c0.7,0.4,5.4,3.1,6.1,3.5c0.7,0.4,1.6,0.3,2.7-0.4
					l9.9-5.7L187,115.2z M173.7,165.1l3.5-18.1c0.1-0.3,0.1-0.6,0.2-1l3.7,14.8L173.7,165.1z"/>
				<path class="st19" d="M194.8,191c-0.9-0.5-5.4-3.1-6-3.5c-0.7-0.4-1.2-1.1-1.5-2.2l-1.7-6.8l4.5-2.6l3.3,12.9
					C193.7,189.9,194.2,190.6,194.8,191z"/>
				<path class="st19" d="M187.2,164.3l-6.1-3.5l-3.7-14.8c0,0,0,0,0,0c0,0,0,0,0-0.1c0.3-1.4,0.6-3.1,1-4.9
					c0.4-2.3,0.8-4.7,1.2-7.3c0.4,2.1,0.9,4,1.3,5.8c0.4,1.8,0.8,3.3,1.2,4.5L187.2,164.3z"/>
				<path class="st19" d="M152.5,214c-0.2,1.1,0.8,2,1.8,1.7l0,0.1l-0.6,0.3c-1.2,0.7-2.6,0.7-3.8,0l-1.8-1.1
					c-1.4-0.8-2.1-2.4-1.8-4.1l20.1-91.3c0.2-0.8,0.5-1.7,1-2.4l6.1,3.5c-0.5,0.7-0.8,1.5-1,2.4L152.5,214z"/>
				<path class="st4" d="M207.5,185l-9.9,5.7c-1.1,0.6-2,0.8-2.7,0.4c-0.7-0.4-1.2-1.1-1.5-2.2l-3.3-12.9l-20.9,12.1l-3.3,16.7
					c-0.3,1.2-0.8,2.5-1.5,3.8c-0.7,1.3-1.6,2.2-2.7,2.8l-7.2,4.1c-1.1,0.6-2.4-0.3-2.1-1.5l19.9-90.9c0.4-2,1.7-3.7,3.4-4.7
					l6.5-3.7c2-1.1,4.5-0.1,5.1,2.1L207.5,185z M187.2,164.3l-5.1-20.3c-0.4-1.3-0.8-2.8-1.2-4.5c-0.4-1.8-0.9-3.7-1.3-5.7
					c-0.4,2.6-0.8,5-1.2,7.3c-0.4,2.3-0.8,4.2-1.2,5.9l-5.1,26L187.2,164.3z"/>
			</g>
			<g>
				<path class="st18" d="M254.9,150c1.7-2.9,3.2-6,4.6-9.3c1.4-3.3,2.5-6.7,3.4-10.2c0.9-3.5,1.6-7,2.1-10.7
					c0.5-3.6,0.7-7.3,0.7-10.9c0-6.1-0.7-11.4-2.1-15.9c-1.4-4.5-3.3-7.9-5.8-10.4c-0.9-0.9-1.8-1.6-2.9-2.2c-1-0.6-5-2.9-6-3.5
					c-1.9-1.1-3.9-1.7-6.2-1.8c-3.5-0.2-7.4,0.9-11.7,3.4c-4.3,2.5-8.2,5.8-11.7,10.1c-3.5,4.3-6.5,9-9.1,14.4
					c-2.5,5.3-4.5,11-5.8,17.1c-1.4,6.1-2.1,12.2-2.1,18.3s0.7,11.4,2.1,15.9c1.4,4.5,3.3,8,5.8,10.4c0.9,0.9,1.9,1.6,2.9,2.2
					c1,0.6,4.9,2.9,5.9,3.4c1.9,1.1,4,1.7,6.3,1.8c3.5,0.2,7.4-1,11.7-3.4c1.8-1.1,3.6-2.3,5.2-3.6l2.5,2.8c0.4,0.4,0.8,0.7,1.1,0.9
					c0.7,0.4,5.7,3.3,6.1,3.5c0.7,0.4,1.4,0.6,2.2,0.5c1.2-0.1,2.6-0.6,4.1-1.4l10.5-6.1L254.9,150z M245.5,124.9
					c-0.7,3.8-1.7,7.2-3,10.3c-1.3,3.1-2.9,5.8-4.9,8.1c-1.9,2.3-4.1,4.2-6.5,5.6c-2.3,1.3-4.3,2-6.1,2c-1-1.5-1.7-3.4-2.3-5.8
					c-0.7-3-1.1-6.5-1.1-10.8c0-4.2,0.3-8.2,1.1-11.9c0.7-3.8,1.7-7.2,3-10.3c1.3-3.1,2.9-5.8,4.9-8.2c1.9-2.4,4.1-4.3,6.6-5.7
					c2.2-1.3,4.2-1.9,6-1.9c1,1.5,1.8,3.4,2.3,5.8c0.7,3,1.1,6.5,1.1,10.7C246.6,117.2,246.2,121.2,245.5,124.9z"/>
				<path class="st19" d="M218.9,170.3c-1.3-0.7-4.8-2.8-5.7-3.3c-1-0.6-2-1.3-2.9-2.2c-2.5-2.4-4.5-5.9-5.8-10.4
					c-1.4-4.5-2.1-9.8-2.1-15.9s0.7-12.2,2.1-18.3c1.3-5.6,3-10.9,5.3-15.9l6.1,3.5c-2.3,5-4,10.3-5.3,15.9
					c-1.4,6.1-2.1,12.2-2.1,18.3c0,6.1,0.7,11.4,2.1,15.9c1.4,4.5,3.3,8,5.8,10.4C217.2,169.1,218,169.7,218.9,170.3z"/>
				<path class="st19" d="M248.6,99c-1.3-1.6-2.9-2.4-4.8-2.5c-0.2,0-0.4,0-0.5,0c1,1.5,1.8,3.4,2.3,5.8c0.7,3,1.1,6.5,1.1,10.7
					c0,4.2-0.4,8.2-1.1,12c-0.7,3.8-1.7,7.2-3,10.3c-1.3,3.1-2.9,5.8-4.9,8.1c-1.9,2.3-4.1,4.2-6.5,5.6c-2.3,1.3-4.3,2-6.1,2
					c0.2,0.4,0.5,0.7,0.7,1c1.3,1.6,2.9,2.4,4.9,2.5c1.9,0.1,4.1-0.5,6.6-2c2.4-1.4,4.6-3.3,6.5-5.6c1.9-2.3,3.5-5,4.8-8.1
					c1.3-3.1,2.3-6.5,3-10.3c0.7-3.8,1.1-7.8,1.1-12c0-4.2-0.4-7.8-1.1-10.7C250.9,102.8,249.9,100.5,248.6,99z"/>
				<path class="st19" d="M244.1,163.7c-0.6,0.5-1.1,1-1.7,1.5l2.5,2.8c0.4,0.4,0.8,0.7,1.1,0.9c0.7,0.4,5.4,3.1,6,3.5
					c-0.4-0.2-0.7-0.5-1.1-0.9L244.1,163.7z"/>
				<path class="st4" d="M268.9,165.4l-10.5,6.1c-1.5,0.9-2.9,1.4-4.1,1.4c-1.2,0.1-2.3-0.4-3.3-1.4l-6.8-7.9
					c-2.1,2-4.4,3.7-6.9,5.1c-4.3,2.5-8.2,3.6-11.7,3.4c-3.5-0.2-6.5-1.5-9.1-3.9c-2.5-2.5-4.4-5.9-5.8-10.4
					c-1.4-4.5-2.1-9.8-2.1-15.9c0-6.1,0.7-12.2,2.1-18.3c1.4-6.1,3.3-11.8,5.8-17.1c2.5-5.3,5.5-10.1,9.1-14.4
					c3.5-4.3,7.4-7.6,11.7-10.1c4.3-2.5,8.2-3.6,11.7-3.4c3.5,0.2,6.5,1.5,9,4c2.5,2.4,4.4,5.9,5.8,10.4c1.4,4.5,2.1,9.8,2.1,15.9
					c0,3.6-0.2,7.3-0.7,10.9c-0.5,3.6-1.2,7.2-2.1,10.7c-0.9,3.5-2.1,6.9-3.4,10.2c-1.3,3.3-2.9,6.4-4.6,9.3L268.9,165.4z
					 M221.6,134.4c0,4.2,0.4,7.8,1.1,10.8c0.7,3,1.7,5.2,3,6.8c1.3,1.6,2.9,2.4,4.9,2.5c1.9,0.1,4.1-0.5,6.6-2
					c2.4-1.4,4.6-3.3,6.5-5.6c1.9-2.3,3.5-5,4.9-8.1c1.3-3.1,2.3-6.5,3-10.3c0.7-3.8,1.1-7.8,1.1-12c0-4.2-0.4-7.8-1.1-10.7
					c-0.7-2.9-1.7-5.2-3-6.8c-1.3-1.6-2.9-2.4-4.9-2.6c-1.9-0.1-4.1,0.5-6.5,1.9c-2.5,1.4-4.7,3.3-6.6,5.7c-1.9,2.4-3.6,5.1-4.9,8.2
					c-1.3,3.1-2.3,6.5-3,10.3C222,126.2,221.6,130.2,221.6,134.4z"/>
			</g>
		</g>
	</g>
</g>
</svg>
